# xmcd
# 
# Track frame offsets:
#     150
#     29762
#     50717
#     70855
#     91162
#     114325
#     137110
#     159887
#     176657
#     202165
#     228777
# 
# Disc length: 3488
# 
# Revision: 3
# Processed by: cddbd v1.5.1PL0 Copyright (c) Steve Scherf et al.
# Submitted via: BonkEnc v1.0beta3
# 
DISCID=940d9e0b
DTITLE=Junior Wells - Live at Buddy Guy's Legends
DYEAR=1997
DGENRE=Blues
TTITLE0=Broke and Hungry
TTITLE1=Messin' with the Kid
TTITLE2=Hoodoo Man
TTITLE3=Little by Little
TTITLE4=The Train
TTITLE5=Sweet Sixteen
TTITLE6=What My Momma Done Told Me
TTITLE7=Got My Mojo Working
TTITLE8=Love Her with a Feeling
TTITLE9=Help Me
TTITLE10=Today I Started Loving You Again
EXTD=YEAR: 1997
EXTT0=
EXTT1=
EXTT2=
EXTT3=
EXTT4=
EXTT5=
EXTT6=
EXTT7=
EXTT8=
EXTT9=
EXTT10=
PLAYORDER=
